<svg xmlns="http://www.w3.org/2000/svg" width="388" height="256.184" viewBox="0 0 388 256.184">
  <g id="Grupo_3126" data-name="Grupo 3126" transform="translate(-1017.305 -2258.816)">
    <text id="Portal_do_Hiperador" data-name="Portal do Hiperador" transform="translate(1017.305 2375)" fill="#333" font-size="24" font-family="Montserrat-Bold, Montserrat" font-weight="700" letter-spacing="0.03em"><tspan x="0" y="0">Portal do Hiperador</tspan></text>
    <text id="Dispomos_de_um_portal_exclusivo_onde_você_poderá_acessar_sua_carteira_de_clientes_ver_informações_técnicas_e_baixar_materiais_de_divulgação." data-name="Dispomos de um portal exclusivo onde você poderá acessar sua carteira de clientes, ver informações técnicas e baixar materiais de divulgação." transform="translate(1019.305 2406)" fill="#818181" font-size="16" font-family="Montserrat-Medium, Montserrat" font-weight="500" letter-spacing="0.015em"><tspan x="0" y="15">Dispomos de um portal exclusivo onde você </tspan><tspan x="0" y="43">poderá acessar sua carteira de clientes, ver </tspan><tspan x="0" y="71">informações técnicas e baixar materiais de </tspan><tspan x="0" y="99">divulgação.</tspan></text>
    <g id="Browser-Online_Learning" data-name="Browser-Online Learning" transform="translate(1015.305 2256.816)">
      <path id="Caminho_2489" data-name="Caminho 2489" d="M62.229,2H5.409A3.409,3.409,0,0,0,2,5.409v50A3.409,3.409,0,0,0,5.409,58.82H36.683l3.955,4.944v5.283a1.136,1.136,0,0,0,1.136,1.136h15.91a1.136,1.136,0,0,0,1.136-1.136V63.583l1.906-4.764h1.5a3.409,3.409,0,0,0,3.409-3.409v-50A3.409,3.409,0,0,0,62.229,2ZM5.409,4.273h56.82a1.136,1.136,0,0,1,1.136,1.136v5.682H4.273V5.409A1.136,1.136,0,0,1,5.409,4.273ZM58.82,57.465l-2.192,5.477a1.15,1.15,0,0,0-.081.423v4.546H42.91V63.365a1.136,1.136,0,0,0-.249-.71l-4.3-5.371v-12.1a1.136,1.136,0,0,1,2.273,0V52H42.91V31.546a1.136,1.136,0,1,1,2.273,0v15.91h2.273V42.91a1.136,1.136,0,0,1,2.273,0v4.546H52V44.047a1.136,1.136,0,1,1,2.273,0v3.409h2.273V45.183a1.136,1.136,0,0,1,2.273,0Zm3.409-.918H61.092V45.183a3.409,3.409,0,0,0-3.409-3.409,3.372,3.372,0,0,0-1.672.455,3.358,3.358,0,0,0-4.546-1.136,3.341,3.341,0,0,0-4.01-1.382V31.546a3.409,3.409,0,1,0-6.818,0V41.983a3.371,3.371,0,0,0-1.136-.209,3.409,3.409,0,0,0-3.409,3.409V56.547H5.409A1.136,1.136,0,0,1,4.273,55.41V13.364H63.365V55.41a1.136,1.136,0,0,1-1.136,1.136Z" transform="translate(0 0)" fill="#6a4b9d"/>
      <path id="Caminho_2490" data-name="Caminho 2490" d="M13.539,29.922a1.136,1.136,0,0,0,1.106.05l6.818-3.409a1.136,1.136,0,0,0,0-2.034l-6.818-3.409A1.136,1.136,0,0,0,13,22.136v6.818a1.136,1.136,0,0,0,.539.967Zm1.734-5.947,3.141,1.57-3.141,1.57Z" transform="translate(1.5 2.591)" fill="#6a4b9d"/>
      <path id="Caminho_2491" data-name="Caminho 2491" d="M6,6H8.273V8.273H6Z" transform="translate(0.546 0.546)" fill="#6a4b9d"/>
      <path id="Caminho_2492" data-name="Caminho 2492" d="M10,6h2.273V8.273H10Z" transform="translate(1.091 0.546)" fill="#6a4b9d"/>
      <path id="Caminho_2493" data-name="Caminho 2493" d="M14,6h2.273V8.273H14Z" transform="translate(1.637 0.546)" fill="#6a4b9d"/>
      <path id="Caminho_2494" data-name="Caminho 2494" d="M21.637,36a3.409,3.409,0,0,0-3.2,2.273H8v2.273H18.437a3.389,3.389,0,0,0,6.4,0h3.618V38.273H24.837A3.409,3.409,0,0,0,21.637,36Zm0,4.546a1.136,1.136,0,1,1,1.136-1.136A1.136,1.136,0,0,1,21.637,40.546Z" transform="translate(0.818 4.637)" fill="#6a4b9d"/>
      <path id="Caminho_2495" data-name="Caminho 2495" d="M27.319,16H9.136A1.136,1.136,0,0,0,8,17.136V35.319a1.136,1.136,0,0,0,1.136,1.136H27.319a1.136,1.136,0,0,0,1.136-1.136V17.136A1.136,1.136,0,0,0,27.319,16ZM26.182,34.182H10.273V18.273h15.91Z" transform="translate(0.818 1.91)" fill="#6a4b9d"/>
      <path id="Caminho_2496" data-name="Caminho 2496" d="M32,16H54.728v2.273H32Z" transform="translate(4.092 1.91)" fill="#6a4b9d"/>
      <path id="Caminho_2497" data-name="Caminho 2497" d="M32,20h6.818v2.273H32Z" transform="translate(4.092 2.455)" fill="#6a4b9d"/>
      <path id="Caminho_2498" data-name="Caminho 2498" d="M40,20H53.637v2.273H40Z" transform="translate(5.183 2.455)" fill="#6a4b9d"/>
      <path id="Caminho_2499" data-name="Caminho 2499" d="M32,24h2.273v2.273H32Z" transform="translate(4.092 3.001)" fill="#6a4b9d"/>
      <path id="Caminho_2500" data-name="Caminho 2500" d="M44,24h9.091v2.273H44Z" transform="translate(5.729 3.001)" fill="#6a4b9d"/>
    </g>
  </g>
</svg>
