<svg xmlns="http://www.w3.org/2000/svg" width="190" height="51.23" viewBox="0 0 190 51.23">
  <g id="Grupo_580" data-name="Grupo 580" transform="translate(155.112)">
    <g id="Grupo_14" data-name="Grupo 14" transform="translate(-155.112)">
      <g id="Grupo_5" data-name="Grupo 5">
        <g id="Grupo_1" data-name="Grupo 1" transform="translate(14.673 15.668)">
          <rect id="Ret창ngulo_1" data-name="Ret창ngulo 1" width="8.207" height="15.17" fill="#fff"/>
        </g>
        <g id="Grupo_2" data-name="Grupo 2" transform="translate(30.838 15.668)">
          <rect id="Ret창ngulo_2" data-name="Ret창ngulo 2" width="8.207" height="15.17" fill="#fff"/>
        </g>
        <g id="Grupo_3" data-name="Grupo 3" transform="translate(8.207)">
          <path id="Caminho_1" data-name="Caminho 1" d="M40.852,11.937H34.884c0-1.492-.249-5.969-3.979-5.969H13.248c-3.73,0-3.979,4.476-3.979,5.969H3.3C3.3,5.969,6.284,0,13.248,0H31.153C37.868,0,40.852,5.969,40.852,11.937Z" transform="translate(-3.3)" fill="#a479b5"/>
        </g>
        <g id="Grupo_4" data-name="Grupo 4" transform="translate(0 15.668)">
          <path id="Caminho_2" data-name="Caminho 2" d="M46.257,6.3c0,2.736-.249,7.709-.5,11.191-.5,3.979-.746,8.207-1.741,11.688-1.99.995-8.953,1.99-17.16,1.99h0c-8.207,0-15.17-.995-17.16-1.99C8.7,25.7,8.455,21.47,7.958,17.491c0-3.482-.249-8.455-.249-11.191H0c0,2.984.249,7.212.5,10.942.5,4.725.995,10.445,2.238,14.673,1.243,3.979,6.466,5.223,11.44,5.969a100.622,100.622,0,0,0,12.932.746h0a100.622,100.622,0,0,0,12.932-.746c4.974-.746,10.2-1.99,11.44-5.969,1.243-4.228,1.741-9.948,2.238-14.673.249-3.73.5-8.207.5-10.942H46.257Z" transform="translate(0 -6.3)" fill="#fff"/>
        </g>
      </g>
      <g id="Grupo_13" data-name="Grupo 13" transform="translate(69.634 5.969)">
        <g id="Grupo_6" data-name="Grupo 6">
          <path id="Caminho_3" data-name="Caminho 3" d="M52.123,23.29V37.714a1.07,1.07,0,0,1-.995.995H46.154a1.07,1.07,0,0,1-.995-.995V23.29c0-2.984-.995-4.476-4.476-4.476a7.943,7.943,0,0,0-5.72,2.487V37.714a1.07,1.07,0,0,1-.995.995H28.995A1.07,1.07,0,0,1,28,37.714V3.395a1.07,1.07,0,0,1,.995-.995h4.974a1.07,1.07,0,0,1,.995.995V15.332A11.329,11.329,0,0,1,42.175,12.6C48.641,12.6,52.123,15.581,52.123,23.29Z" transform="translate(-28 -2.4)" fill="#fff"/>
        </g>
        <g id="Grupo_7" data-name="Grupo 7" transform="translate(44.764 9.948)">
          <path id="Caminho_4" data-name="Caminho 4" d="M71.615,19.829c0,9.2-4.974,13.429-11.688,13.429a11.31,11.31,0,0,1-6.963-2.487v9.948a1.07,1.07,0,0,1-.995.995H46.995A1.07,1.07,0,0,1,46,40.719V8.141a1.07,1.07,0,0,1,.995-.995h4.974a1.07,1.07,0,0,1,.995.995v.995A10.688,10.688,0,0,1,59.927,6.4C66.89,6.4,71.615,10.876,71.615,19.829Zm-7.212,0c0-4.725-1.99-7.212-5.72-7.212a8.691,8.691,0,0,0-5.471,1.99V25.052a9.242,9.242,0,0,0,5.471,1.99C62.414,27.29,64.4,24.8,64.4,19.829Z" transform="translate(-46 -6.4)" fill="#fff"/>
        </g>
        <g id="Grupo_8" data-name="Grupo 8" transform="translate(75.105 9.948)">
          <path id="Caminho_5" data-name="Caminho 5" d="M72.873,27.539a15.112,15.112,0,0,0,6.217-1.492c.5-.249,1.243,0,1.243.5l1.243,3.73a.908.908,0,0,1-.5,1.243,17.97,17.97,0,0,1-9.2,1.99c-8.953,0-13.678-5.471-13.678-13.678,0-8.7,5.471-13.429,12.435-13.429,7.212,0,11.688,4.228,11.688,12.683v1.741a1.07,1.07,0,0,1-.995.995H65.661C66.158,25.052,67.9,27.539,72.873,27.539ZM65.909,16.6h9.7c-.249-3.233-1.741-4.476-4.725-4.476C68.4,12.12,66.407,13.115,65.909,16.6Z" transform="translate(-58.2 -6.4)" fill="#fff"/>
        </g>
        <g id="Grupo_9" data-name="Grupo 9" transform="translate(105.196 10.196)">
          <path id="Caminho_6" data-name="Caminho 6" d="M85.47,7.495v4.228a1.07,1.07,0,0,1-.995.995,6.885,6.885,0,0,0-2.238.249,13.383,13.383,0,0,0-4.974,2.487V31.618a1.07,1.07,0,0,1-.995.995H71.295a1.07,1.07,0,0,1-.995-.995V7.992A1.07,1.07,0,0,1,71.295,7h4.974a1.07,1.07,0,0,1,.995.995V9.484A11.312,11.312,0,0,1,83.232,6.5h.995A1.138,1.138,0,0,1,85.47,7.495Z" transform="translate(-70.3 -6.5)" fill="#fff"/>
        </g>
        <g id="Grupo_12" data-name="Grupo 12" transform="translate(30.838 0.995)">
          <g id="Grupo_10" data-name="Grupo 10" transform="translate(0 9.699)">
            <path id="Caminho_7" data-name="Caminho 7" d="M41.395,6.7h4.974a1.07,1.07,0,0,1,.995.995V31.32a1.07,1.07,0,0,1-.995.995H41.395a1.07,1.07,0,0,1-.995-.995V7.695A1.07,1.07,0,0,1,41.395,6.7Z" transform="translate(-40.4 -6.7)" fill="#fff"/>
          </g>
          <g id="Grupo_11" data-name="Grupo 11" transform="translate(0)">
            <path id="Caminho_8" data-name="Caminho 8" d="M47.115,3.795A5,5,0,0,0,43.882,2.8h0a7.053,7.053,0,0,0-3.233.995c-.249,0-.249.249-.249.5v3.73c0,.249,0,.5.249.5a5,5,0,0,0,3.233.995h0a7.053,7.053,0,0,0,3.233-.995c.249,0,.249-.249.249-.5V4.292A.868.868,0,0,0,47.115,3.795Z" transform="translate(-40.4 -2.8)" fill="#fff"/>
          </g>
        </g>
      </g>
    </g>
  </g>
</svg>
