<svg id="Grupo_1010" data-name="Grupo 1010" xmlns="http://www.w3.org/2000/svg" width="167.136" height="45.065" viewBox="0 0 167.136 45.065">
  <g id="Grupo_14" data-name="Grupo 14">
    <g id="Grupo_5" data-name="Grupo 5">
      <g id="Grupo_1" data-name="Grupo 1" transform="translate(12.907 13.782)">
        <rect id="Ret창ngulo_1" data-name="Ret창ngulo 1" width="7.219" height="13.345" fill="#6a4b9d"/>
      </g>
      <g id="Grupo_2" data-name="Grupo 2" transform="translate(27.127 13.782)">
        <rect id="Ret창ngulo_2" data-name="Ret창ngulo 2" width="7.219" height="13.345" fill="#6a4b9d"/>
      </g>
      <g id="Grupo_3" data-name="Grupo 3" transform="translate(7.219)">
        <path id="Caminho_1" data-name="Caminho 1" d="M36.333,10.5h-5.25c0-1.313-.219-5.25-3.5-5.25H12.051c-3.281,0-3.5,3.938-3.5,5.25H3.3C3.3,5.25,5.925,0,12.051,0H27.8C33.708,0,36.333,5.25,36.333,10.5Z" transform="translate(-3.3)" fill="#a479b5"/>
      </g>
      <g id="Grupo_4" data-name="Grupo 4" transform="translate(0 13.782)">
        <path id="Caminho_2" data-name="Caminho 2" d="M40.69,6.3c0,2.406-.219,6.782-.438,9.844-.438,3.5-.656,7.219-1.531,10.282-1.75.875-7.876,1.75-15.095,1.75h0c-7.219,0-13.345-.875-15.095-1.75C7.657,23.364,7.438,19.645,7,16.144c0-3.063-.219-7.438-.219-9.844H0c0,2.625.219,6.344.438,9.626.438,4.157.875,9.188,1.969,12.907,1.094,3.5,5.688,4.594,10.063,5.25a88.514,88.514,0,0,0,11.376.656h0a88.514,88.514,0,0,0,11.376-.656c4.375-.656,8.969-1.75,10.063-5.25,1.094-3.719,1.531-8.751,1.969-12.907.219-3.281.438-7.219.438-9.626h-7Z" transform="translate(0 -6.3)" fill="#6a4b9d"/>
      </g>
    </g>
    <g id="Grupo_13" data-name="Grupo 13" transform="translate(61.254 5.25)">
      <g id="Grupo_6" data-name="Grupo 6">
        <path id="Caminho_3" data-name="Caminho 3" d="M49.22,20.776V33.465a.941.941,0,0,1-.875.875H43.97a.941.941,0,0,1-.875-.875V20.776c0-2.625-.875-3.938-3.938-3.938a6.987,6.987,0,0,0-5.032,2.188V33.465a.941.941,0,0,1-.875.875H28.875A.941.941,0,0,1,28,33.465V3.275a.941.941,0,0,1,.875-.875H33.25a.941.941,0,0,1,.875.875v10.5a9.966,9.966,0,0,1,6.344-2.406C46.157,11.369,49.22,13.995,49.22,20.776Z" transform="translate(-28 -2.4)" fill="#707070"/>
      </g>
      <g id="Grupo_7" data-name="Grupo 7" transform="translate(39.378 8.751)">
        <path id="Caminho_4" data-name="Caminho 4" d="M68.533,18.213c0,8.094-4.375,11.813-10.282,11.813a9.949,9.949,0,0,1-6.125-2.188v8.751a.941.941,0,0,1-.875.875H46.875A.941.941,0,0,1,46,36.589V7.931a.941.941,0,0,1,.875-.875H51.25a.941.941,0,0,1,.875.875v.875A9.4,9.4,0,0,1,58.251,6.4C64.376,6.4,68.533,10.338,68.533,18.213Zm-6.344,0c0-4.157-1.75-6.344-5.032-6.344a7.645,7.645,0,0,0-4.813,1.75v9.188a8.13,8.13,0,0,0,4.813,1.75C60.438,24.776,62.189,22.589,62.189,18.213Z" transform="translate(-46 -6.4)" fill="#707070"/>
      </g>
      <g id="Grupo_8" data-name="Grupo 8" transform="translate(66.067 8.751)">
        <path id="Caminho_5" data-name="Caminho 5" d="M71.107,24.995a13.293,13.293,0,0,0,5.469-1.313c.438-.219,1.094,0,1.094.438L78.764,27.4a.8.8,0,0,1-.438,1.094,15.808,15.808,0,0,1-8.094,1.75c-7.876,0-12.032-4.813-12.032-12.032C58.2,10.557,63.013,6.4,69.138,6.4c6.344,0,10.282,3.719,10.282,11.157v1.531a.941.941,0,0,1-.875.875H64.763C65.2,22.807,66.732,24.995,71.107,24.995Zm-6.125-9.626h8.532c-.219-2.844-1.531-3.938-4.157-3.938C67.169,11.432,65.419,12.307,64.982,15.369Z" transform="translate(-58.2 -6.4)" fill="#707070"/>
      </g>
      <g id="Grupo_9" data-name="Grupo 9" transform="translate(92.537 8.969)">
        <path id="Caminho_6" data-name="Caminho 6" d="M83.645,7.375v3.719a.941.941,0,0,1-.875.875,6.057,6.057,0,0,0-1.969.219,11.773,11.773,0,0,0-4.375,2.188V28.6a.941.941,0,0,1-.875.875H71.175A.941.941,0,0,1,70.3,28.6V7.813a.941.941,0,0,1,.875-.875H75.55a.941.941,0,0,1,.875.875V9.125A9.951,9.951,0,0,1,81.676,6.5h.875A1,1,0,0,1,83.645,7.375Z" transform="translate(-70.3 -6.5)" fill="#707070"/>
      </g>
      <g id="Grupo_12" data-name="Grupo 12" transform="translate(27.127 0.875)">
        <g id="Grupo_10" data-name="Grupo 10" transform="translate(0 8.532)">
          <path id="Caminho_7" data-name="Caminho 7" d="M41.275,6.7H45.65a.941.941,0,0,1,.875.875V28.358a.941.941,0,0,1-.875.875H41.275a.941.941,0,0,1-.875-.875V7.575A.941.941,0,0,1,41.275,6.7Z" transform="translate(-40.4 -6.7)" fill="#707070"/>
        </g>
        <g id="Grupo_11" data-name="Grupo 11" transform="translate(0)">
          <path id="Caminho_8" data-name="Caminho 8" d="M46.307,3.675A4.4,4.4,0,0,0,43.463,2.8h0a6.2,6.2,0,0,0-2.844.875c-.219,0-.219.219-.219.438V7.394c0,.219,0,.438.219.438a4.4,4.4,0,0,0,2.844.875h0a6.2,6.2,0,0,0,2.844-.875c.219,0,.219-.219.219-.438V4.113A.764.764,0,0,0,46.307,3.675Z" transform="translate(-40.4 -2.8)" fill="#707070"/>
        </g>
      </g>
    </g>
  </g>
</svg>
